<svg aria-hidden="true" id="svgdefs" version="2" xmlns="http://www.w3.org/2000/svg">
	<defs>
		<symbol id="logo" fill="#010613" viewBox="0 0 406 52">
			<path d="M92.13 25.546c0-6.187-3.842-9.714-8.855-9.714-5.041 0-8.855 3.527-8.855 9.713 0 6.159 3.814 9.713 8.855 9.713 5.013 0 8.854-3.527 8.854-9.713zm-4.054 0c0 4.007-1.902 6.176-4.801 6.176-2.909 0-4.801-2.17-4.801-6.177s1.892-6.176 4.8-6.176c2.9 0 4.802 2.17 4.802 6.177zM97.301 35h3.998v-6.13h3.36c4.349 0 6.879-2.595 6.879-6.371 0-3.758-2.484-6.408-6.777-6.408h-7.46zm3.998-9.335V19.36h2.696c2.308 0 3.425 1.256 3.425 3.14 0 1.874-1.117 3.167-3.407 3.167zM116.345 35h12.778v-3.296h-8.78v-4.515h8.088v-3.296h-8.088v-4.506h8.743v-3.296h-12.741zm33.946-18.91h-3.98v11.893h-.166l-8.162-11.892h-3.508V35h3.998V23.099h.138L146.838 35h3.453zm13.02 3.297h5.789V35h3.952V19.387h5.789v-3.296h-15.53zM183.609 35h12.778v-3.296h-8.781v-4.515h8.088v-3.296h-8.088v-4.506h8.744v-3.296h-12.741zm18.129 0h3.998v-6.703h2.918L212.236 35h4.414l-4.017-7.35c2.152-.923 3.343-2.797 3.343-5.382 0-3.758-2.484-6.177-6.777-6.177h-7.461zm3.998-9.916v-5.725h2.696c2.309 0 3.426 1.025 3.426 2.909 0 1.874-1.117 2.816-3.407 2.816zm15.275-8.993V35h3.878V22.646h.157l4.893 12.262h2.641l4.893-12.216h.157V35h3.878V16.09h-4.93l-5.208 12.706h-.221l-5.208-12.705zm36.259 5.438h3.831c-.055-3.37-2.825-5.697-7.035-5.697-4.146 0-7.183 2.29-7.165 5.725-.009 2.788 1.958 4.386 5.152 5.152l2.059.517c2.059.498 3.204 1.09 3.213 2.364-.009 1.384-1.32 2.326-3.351 2.326-2.078 0-3.574-.96-3.703-2.853h-3.868c.101 4.09 3.028 6.205 7.617 6.205 4.616 0 7.331-2.207 7.34-5.67-.009-3.148-2.382-4.819-5.669-5.557l-1.699-.407c-1.643-.378-3.019-.988-2.991-2.345 0-1.219 1.08-2.114 3.037-2.114 1.911 0 3.084.868 3.232 2.354zM277.746 35l1.403-4.312h6.823L287.376 35h4.284l-6.519-18.91h-5.151L273.462 35zm2.419-7.433l2.327-7.155h.147l2.327 7.155zM296.146 35h3.998v-6.703h2.917L306.644 35h4.413l-4.016-7.35c2.151-.923 3.342-2.797 3.342-5.382 0-3.758-2.484-6.177-6.777-6.177h-7.46zm3.998-9.916v-5.725h2.696c2.308 0 3.425 1.025 3.425 2.909 0 1.874-1.117 2.816-3.407 2.816zm31.958-2.373c-.526-4.367-3.831-6.879-8.208-6.879-4.995 0-8.808 3.527-8.808 9.713 0 6.168 3.749 9.713 8.808 9.713 4.848 0 7.774-3.222 8.208-6.703l-4.044-.018c-.378 2.022-1.966 3.185-4.099 3.185-2.872 0-4.82-2.133-4.82-6.177 0-3.933 1.921-6.176 4.848-6.176 2.188 0 3.767 1.265 4.071 3.342zM337.179 35h3.998v-7.811h8.116V35h3.988V16.09h-3.988v7.803h-8.116V16.09h-3.998zm25.606-18.91h-3.997V35h3.997zm8.916 0h-4.441L373.788 35h5.152l6.518-18.91h-4.432l-4.579 14.367h-.176zM389.944 35h12.778v-3.296h-8.78v-4.515h8.088v-3.296h-8.088v-4.506h8.743v-3.296h-12.741zM5 31L.67 23.5h8.66z"></path>
			<path d="M4.759 25.146c-.962-.034-1.72-.842-1.621-1.799a26 26 0 1112.57 24.998c-.826-.492-1.023-1.583-.477-2.375.546-.792 1.628-.984 2.46-.501A22.516 22.516 0 106.628 23.47c-.108.956-.908 1.709-1.869 1.675z"></path>
			<path d="M23.002 17.631c0-.93.754-1.684 1.684-1.684h12.632a1.684 1.684 0 110 3.369H24.686c-.93 0-1.684-.754-1.684-1.684zM23.002 23.526c0-.93.754-1.684 1.684-1.684h9.926a1.684 1.684 0 110 3.368h-9.926c-.93 0-1.684-.754-1.684-1.684zM23.002 29.421c0-.93.754-1.684 1.684-1.684h11.632a1.684 1.684 0 010 3.368H24.686c-.93 0-1.684-.754-1.684-1.684zM23.002 35.316c0-.93.754-1.685 1.684-1.685h3.652a1.684 1.684 0 110 3.369h-3.652c-.93 0-1.684-.754-1.684-1.684z"></path>
		</symbol>
		<symbol
			stroke="currentColor"
			fill="none"
			stroke-width="2"
			viewBox="0 0 24 24"
			stroke-linecap="round"
			stroke-linejoin="round"
			color="#999999"
			style="color:#999999"
			height="1em"
			width="1em"
			id="arrowDown"
		>
			<polyline points="6 9 12 15 18 9"></polyline>
		</symbol>
		<symbol
			stroke="currentColor"
			fill="none"
			stroke-width="2"
			viewBox="0 0 24 24"
			stroke-linecap="round"
			stroke-linejoin="round"
			color="#fefffd"
			style="color:#fefffd"
			height="1em"
			width="1em"
			id="close"
		>
			<line x1="18" y1="6" x2="6" y2="18"></line>
			<line x1="6" y1="6" x2="18" y2="18"></line>
		</symbol>
		<symbol
			stroke="currentColor"
			fill="none"
			stroke-width="2"
			viewBox="0 0 24 24"
			stroke-linecap="round"
			stroke-linejoin="round"
			color="#fefffd"
			style="color:#fefffd"
			height="1em"
			width="1em"
			id="twitter"
		>
			<path d="M23 3a10.9 10.9 0 0 1-3.14 1.53 4.48 4.48 0 0 0-7.86 3v1A10.66 10.66 0 0 1 3 4s-4 9 5 13a11.64 11.64 0 0 1-7 2c9 5 20 0 20-11.5a4.5 4.5 0 0 0-.08-.83A7.72 7.72 0 0 0 23 3z"></path>
		</symbol>
		<svg
			stroke="currentColor"
			fill="none"
			stroke-width="2"
			viewBox="0 0 24 24"
			stroke-linecap="round"
			stroke-linejoin="round"
			color="#fefffd"
			style="color:#fefffd"
			height="1em"
			width="1em"
			id="github"
		>
			<path d="M9 19c-5 1.5-5-2.5-7-3m14 6v-3.87a3.37 3.37 0 0 0-.94-2.61c3.14-.35 6.44-1.54 6.44-7A5.44 5.44 0 0 0 20 4.77 5.07 5.07 0 0 0 19.91 1S18.73.65 16 2.48a13.38 13.38 0 0 0-7 0C6.27.65 5.09 1 5.09 1A5.07 5.07 0 0 0 5 4.77a5.44 5.44 0 0 0-1.5 3.78c0 5.42 3.3 6.61 6.44 7A3.37 3.37 0 0 0 9 18.13V22"></path>
		</svg>
		<svg
			stroke="currentColor"
			fill="none"
			stroke-width="2"
			viewBox="0 0 24 24"
			stroke-linecap="round"
			stroke-linejoin="round"
			color="#fefffd"
			style="color:#fefffd"
			height="1em"
			width="1em"
			id="contact"
		>
			<path d="M4 4h16c1.1 0 2 .9 2 2v12c0 1.1-.9 2-2 2H4c-1.1 0-2-.9-2-2V6c0-1.1.9-2 2-2z"></path>
			<polyline points="22,6 12,13 2,6"></polyline>
		</svg>
	</defs>
</svg>
